# Apple ModelIO OBJ File: cylinder
mtllib cylinder.mtl
o cylinder
v 0.15 0.47 -0.15
v 0.15 -0.00999999 -0.15
v 0.117854 -0.00999999 -0.176382
v 0.117854 0.47 -0.176381
v 0.081179 -0.00999999 -0.195985
v 0.0811794 0.47 -0.195984
v 0.0413844 -0.00999999 -0.208056
v 0.0413849 0.47 -0.208056
v -4.96024e-07 -0.00999999 -0.212132
v 1.72337e-08 0.47 -0.212132
v -0.0413853 -0.00999999 -0.208056
v -0.0413849 0.47 -0.208056
v -0.0811797 -0.00999999 -0.195984
v -0.0811794 0.47 -0.195984
v -0.117854 -0.00999999 -0.176381
v -0.117854 0.47 -0.176381
v -0.15 -0.00999999 -0.15
v -0.15 0.47 -0.15
v -0.176381 -0.00999999 -0.117854
v -0.176381 0.47 -0.117854
v -0.195984 -0.00999999 -0.0811794
v -0.195984 0.47 -0.0811794
v -0.208056 -0.00999999 -0.041385
v -0.208056 0.47 -0.0413848
v -0.212132 -0.00999999 -1.87973e-07
v -0.212132 0.47 7.8394e-08
v -0.208056 -0.00999999 0.0413846
v -0.208056 0.47 0.041385
v -0.195985 -0.00999999 0.0811791
v -0.195984 0.47 0.0811795
v -0.176382 -0.00999999 0.117854
v -0.176381 0.47 0.117854
v -0.15 -0.00999999 0.15
v -0.15 0.47 0.15
v -0.117855 -0.00999999 0.176381
v -0.117854 0.47 0.176381
v -0.0811801 -0.00999999 0.195984
v -0.0811792 0.47 0.195984
v -0.0413857 -0.00999999 0.208056
v -0.0413847 0.47 0.208056
v -8.7197e-07 -0.00999999 0.212132
v 2.24598e-07 0.47 0.212132
v 0.041384 -0.00999999 0.208056
v 0.0413851 0.47 0.208056
v 0.0811784 -0.00999999 0.195985
v 0.0811796 0.47 0.195984
v 0.117853 -0.00999999 0.176382
v 0.117854 0.47 0.176381
v 0.149999 -0.00999999 0.150001
v 0.15 0.47 0.15
v 0.176381 -0.00999999 0.117855
v 0.176381 0.47 0.117854
v 0.195984 -0.00999999 0.0811807
v 0.195985 0.47 0.0811791
v 0.208056 -0.00999999 0.0413863
v 0.208056 0.47 0.0413846
v 0.212132 -0.00999999 1.53499e-06
v 0.212132 0.47 -3.4982e-07
v 0.208056 -0.00999999 -0.0413833
v 0.208056 0.47 -0.0413853
v 0.195985 -0.00999999 -0.0811778
v 0.195984 0.47 -0.0811798
v 0.176382 -0.00999999 -0.117853
v 0.176381 0.47 -0.117855
v 1.04907e-08 0.47 0
v -1.04907e-08 -0.00999999 0
vn 0.390909 0.833295 -0.390909
vn 0.390908 -0.833295 -0.390909
vn 0.307132 -0.833286 -0.459679
vn 0.307132 0.833286 -0.459679
vn 0.211561 -0.833283 -0.510765
vn 0.211561 0.833283 -0.510765
vn 0.107855 -0.833285 -0.542221
vn 0.107855 0.833285 -0.542221
vn -6.05895e-08 -0.833288 -0.552839
vn 1.22588e-08 0.833288 -0.552839
vn -0.107856 -0.833285 -0.542221
vn -0.107855 0.833285 -0.542221
vn -0.211561 -0.833283 -0.510765
vn -0.211561 0.833283 -0.510765
vn -0.307132 -0.833286 -0.459679
vn -0.307132 0.833286 -0.459679
vn -0.390909 -0.833295 -0.390909
vn -0.390909 0.833295 -0.390909
vn -0.459679 -0.833286 -0.307132
vn -0.459679 0.833286 -0.307132
vn -0.510765 -0.833283 -0.211561
vn -0.510765 0.833283 -0.211561
vn -0.542221 -0.833285 -0.107855
vn -0.542221 0.833285 -0.107855
vn -0.552839 -0.833288 2.41654e-08
vn -0.552839 0.833288 2.41654e-08
vn -0.542221 -0.833285 0.107855
vn -0.542221 0.833285 0.107855
vn -0.510765 -0.833283 0.211561
vn -0.510765 0.833283 0.211561
vn -0.459679 -0.833286 0.307132
vn -0.459679 0.833286 0.307132
vn -0.390928 -0.833288 0.390905
vn -0.390908 0.833295 0.390909
vn -0.307132 -0.833286 0.459679
vn -0.307132 0.833286 0.459679
vn -0.211561 -0.833283 0.510765
vn -0.211561 0.833283 0.510765
vn -0.107855 -0.833285 0.542221
vn -0.107855 0.833285 0.542221
vn -1.22588e-08 -0.833288 0.552839
vn 6.05895e-08 0.833288 0.552839
vn 0.107833 -0.833287 0.542222
vn 0.107856 0.833285 0.542221
vn 0.211561 -0.833283 0.510765
vn 0.211561 0.833283 0.510765
vn 0.307132 -0.833286 0.459679
vn 0.307132 0.833286 0.459679
vn 0.390905 -0.833288 0.390928
vn 0.390905 0.833288 0.390928
vn 0.459679 -0.833286 0.307132
vn 0.459679 0.833286 0.307132
vn 0.510765 -0.833283 0.211561
vn 0.510765 0.833283 0.211561
vn 0.542221 -0.833285 0.107855
vn 0.542221 0.833285 0.107855
vn 0.552839 -0.833288 -2.41654e-08
vn 0.552839 0.833288 -2.41654e-08
vn 0.542222 -0.833287 -0.107833
vn 0.542222 0.833287 -0.107833
vn 0.510765 -0.833283 -0.211561
vn 0.510765 0.833283 -0.211561
vn 0.459679 -0.833286 -0.307132
vn 0.459679 0.833286 -0.307132
vn 4.37114e-08 1 -1.91069e-15
vn -4.37114e-08 -1 1.91069e-15
g
usemtl cylinder_mtl
f 1//1 2//2 3//3 4//4 
f 4//4 3//3 5//5 6//6 
f 6//6 5//5 7//7 8//8 
f 8//8 7//7 9//9 10//10 
f 10//10 9//9 11//11 12//12 
f 12//12 11//11 13//13 14//14 
f 14//14 13//13 15//15 16//16 
f 16//16 15//15 17//17 18//18 
f 18//18 17//17 19//19 20//20 
f 20//20 19//19 21//21 22//22 
f 22//22 21//21 23//23 24//24 
f 24//24 23//23 25//25 26//26 
f 26//26 25//25 27//27 28//28 
f 28//28 27//27 29//29 30//30 
f 30//30 29//29 31//31 32//32 
f 32//32 31//31 33//33 34//34 
f 34//34 33//33 35//35 36//36 
f 36//36 35//35 37//37 38//38 
f 38//38 37//37 39//39 40//40 
f 40//40 39//39 41//41 42//42 
f 42//42 41//41 43//43 44//44 
f 44//44 43//43 45//45 46//46 
f 46//46 45//45 47//47 48//48 
f 48//48 47//47 49//49 50//50 
f 50//50 49//49 51//51 52//52 
f 52//52 51//51 53//53 54//54 
f 54//54 53//53 55//55 56//56 
f 56//56 55//55 57//57 58//58 
f 58//58 57//57 59//59 60//60 
f 60//60 59//59 61//61 62//62 
f 62//62 61//61 63//63 64//64 
f 2//2 1//1 64//64 63//63 
f 65//65 1//1 4//4 
f 66//66 3//3 2//2 
f 65//65 4//4 6//6 
f 66//66 5//5 3//3 
f 65//65 6//6 8//8 
f 66//66 7//7 5//5 
f 65//65 8//8 10//10 
f 66//66 9//9 7//7 
f 65//65 10//10 12//12 
f 66//66 11//11 9//9 
f 65//65 12//12 14//14 
f 66//66 13//13 11//11 
f 65//65 14//14 16//16 
f 66//66 15//15 13//13 
f 65//65 16//16 18//18 
f 66//66 17//17 15//15 
f 65//65 18//18 20//20 
f 66//66 19//19 17//17 
f 65//65 20//20 22//22 
f 66//66 21//21 19//19 
f 65//65 22//22 24//24 
f 66//66 23//23 21//21 
f 65//65 24//24 26//26 
f 66//66 25//25 23//23 
f 65//65 26//26 28//28 
f 66//66 27//27 25//25 
f 65//65 28//28 30//30 
f 66//66 29//29 27//27 
f 65//65 30//30 32//32 
f 66//66 31//31 29//29 
f 65//65 32//32 34//34 
f 66//66 33//33 31//31 
f 65//65 34//34 36//36 
f 66//66 35//35 33//33 
f 65//65 36//36 38//38 
f 66//66 37//37 35//35 
f 65//65 38//38 40//40 
f 66//66 39//39 37//37 
f 65//65 40//40 42//42 
f 66//66 41//41 39//39 
f 65//65 42//42 44//44 
f 66//66 43//43 41//41 
f 65//65 44//44 46//46 
f 66//66 45//45 43//43 
f 65//65 46//46 48//48 
f 66//66 47//47 45//45 
f 65//65 48//48 50//50 
f 66//66 49//49 47//47 
f 65//65 50//50 52//52 
f 66//66 51//51 49//49 
f 65//65 52//52 54//54 
f 66//66 53//53 51//51 
f 65//65 54//54 56//56 
f 66//66 55//55 53//53 
f 65//65 56//56 58//58 
f 66//66 57//57 55//55 
f 65//65 58//58 60//60 
f 66//66 59//59 57//57 
f 65//65 60//60 62//62 
f 66//66 61//61 59//59 
f 65//65 62//62 64//64 
f 66//66 63//63 61//61 
f 64//64 1//1 65//65 
f 66//66 2//2 63//63 
s off
